<svg xmlns="http://www.w3.org/2000/svg" viewBox="0 0 960 540" role="img" aria-label="VDuckie Level 1 — first crack">
<defs>
  <linearGradient id="shell" x1="0" y1="0" x2="1" y2="1"><stop offset="0" stop-color="#FFFDF4"/><stop offset=".55" stop-color="#FFF5D4"/><stop offset="1" stop-color="#EED496"/></linearGradient>
  <radialGradient id="warmth" cx="50%" cy="44%" r="58%"><stop offset="0" stop-color="#FFE98A" stop-opacity=".78"/><stop offset=".62" stop-color="#FFD447" stop-opacity=".24"/><stop offset="1" stop-color="#FFD447" stop-opacity="0"/></radialGradient>
</defs>
<ellipse cx="480" cy="477" rx="118" ry="18" fill="#293D36" opacity=".11"/>
<ellipse cx="480" cy="267" rx="190" ry="218" fill="url(#warmth)" opacity=".48"/>
<path d="M480 69c-91 0-158 116-158 246 0 105 57 160 158 160s158-55 158-160c0-130-67-246-158-246Z" fill="url(#shell)" stroke="#293D36" stroke-width="11" stroke-linejoin="round"/>
<path d="M385 139c22-43 52-60 78-57-25 30-38 66-43 106-5 34-17 59-38 61-20 2-27-56 3-110Z" fill="#FFFFFF" opacity=".34"/>
<path d="M492 82l-17 29 18 17-22 27 17 19" fill="none" stroke="#8C642D" stroke-width="8" stroke-linecap="round" stroke-linejoin="round"/>
<path d="M475 111l-23 10m41 7 24 7" fill="none" stroke="#8C642D" stroke-width="6" stroke-linecap="round"/>
<g opacity=".18" fill="none" stroke="#293D36" stroke-linecap="round" stroke-linejoin="round">
  <path d="M448 246q16-13 31 0M491 246q16-13 31 0" stroke-width="9"/>
  <path d="M456 287q24-17 48 0q-24 25-48 0Z" fill="#F28A2E" stroke-width="7"/>
  <path d="M453 203q12-22 25 0q13-28 27 1" stroke-width="8"/>
</g>
<circle cx="490" cy="180" r="20" fill="#FFD447" opacity=".12"/>
</svg>
