<svg xmlns="http://www.w3.org/2000/svg" viewBox="0 0 64 64" role="img" aria-label="VDuckie">
  <defs>
    <linearGradient id="bg" x1="0" y1="0" x2="1" y2="1">
      <stop offset="0" stop-color="#0f5a46"/>
      <stop offset="1" stop-color="#173c34"/>
    </linearGradient>
    <linearGradient id="duck" x1="0" y1="0" x2="0" y2="1">
      <stop offset="0" stop-color="#ffd63d"/>
      <stop offset="1" stop-color="#f7b928"/>
    </linearGradient>
  </defs>
  <rect x="2" y="2" width="60" height="60" rx="15" fill="url(#bg)"/>
  <path d="M26.5 15.2c1.4-3.5 3.8-5.4 6.5-6.2-.4 2-.1 3.6 1.1 5.1 2.9-2.1 5.4-2.4 7.4-1.6-1.7 1.4-2.5 3-2.5 4.8" fill="none" stroke="#18352e" stroke-width="2.6" stroke-linecap="round" stroke-linejoin="round"/>
  <ellipse cx="32" cy="33" rx="20.5" ry="19.8" fill="url(#duck)" stroke="#18352e" stroke-width="2.5"/>
  <path d="M11.9 31.8c-2.3 1-3.1 3.6-1.8 5.6 1.1 1.7 3.1 2.4 5 1.8M52.1 31.8c2.3 1 3.1 3.6 1.8 5.6-1.1 1.7-3.1 2.4-5 1.8" fill="#f8bf29" stroke="#18352e" stroke-width="2.3" stroke-linecap="round"/>
  <rect x="13.6" y="23.2" width="16.2" height="13.7" rx="5.2" fill="#f8f3cf" stroke="#18352e" stroke-width="3"/>
  <rect x="34.2" y="23.2" width="16.2" height="13.7" rx="5.2" fill="#f8f3cf" stroke="#18352e" stroke-width="3"/>
  <path d="M29.8 27.7h4.4M13.4 27.3l-3.2-.7M50.6 27.3l3.2-.7" stroke="#18352e" stroke-width="3" stroke-linecap="round"/>
  <ellipse cx="22.2" cy="30" rx="2.25" ry="3.2" fill="#18352e"/>
  <ellipse cx="41.8" cy="30" rx="2.25" ry="3.2" fill="#18352e"/>
  <circle cx="21.5" cy="28.9" r=".72" fill="#fff"/>
  <circle cx="41.1" cy="28.9" r=".72" fill="#fff"/>
  <path d="M23.2 39.1c2.3-2.3 5.6-3.6 8.8-3.6s6.5 1.3 8.8 3.6c-1.4 4.3-4.5 6.5-8.8 6.5s-7.4-2.2-8.8-6.5Z" fill="#f28a2a" stroke="#18352e" stroke-width="2.3" stroke-linejoin="round"/>
  <path d="M28 40.6c2.7.9 5.3.9 8 0" fill="none" stroke="#a64a17" stroke-width="1.4" stroke-linecap="round"/>
  <path d="M18.2 45.5c3.4 3.9 8.2 6.1 13.8 6.1s10.4-2.2 13.8-6.1" fill="none" stroke="#18352e" stroke-width="2.1" stroke-linecap="round"/>
</svg>