<svg xmlns="http://www.w3.org/2000/svg" viewBox="0 0 3072 512" role="img" aria-label="VDuckie Level 2 sprite sheet">
<defs>
  <linearGradient id="feather" x1="0" y1="0" x2="1" y2="1"><stop offset="0" stop-color="#FFE98A"/><stop offset=".48" stop-color="#FFD447"/><stop offset="1" stop-color="#E7AB31"/></linearGradient>
  <linearGradient id="shell" x1="0" y1="0" x2="0" y2="1"><stop offset="0" stop-color="#FFFDF4"/><stop offset="1" stop-color="#EED496"/></linearGradient>
  <g id="feet"><path d="M191 420q-33 5-48 25q28 16 75 3l6-21Z" fill="#F28A2E" stroke="#293D36" stroke-width="9" stroke-linejoin="round"/><path d="M321 420q33 5 48 25q-28 16-75 3l-6-21Z" fill="#F28A2E" stroke="#293D36" stroke-width="9" stroke-linejoin="round"/></g>
  <g id="torso"><ellipse cx="256" cy="350" rx="101" ry="88" fill="url(#feather)" stroke="#293D36" stroke-width="10"/><ellipse cx="244" cy="328" rx="59" ry="46" fill="#FFE98A" opacity=".38"/><use href="#feet"/></g>
  <g id="head"><ellipse cx="256" cy="205" rx="124" ry="112" fill="url(#feather)" stroke="#293D36" stroke-width="10"/><path d="M206 103q15-29 30 1q14-38 31 0q18-29 31 3" fill="#FFD447" stroke="#293D36" stroke-width="8" stroke-linecap="round" stroke-linejoin="round"/><ellipse cx="190" cy="274" rx="18" ry="10" fill="#F3A064" opacity=".40"/><ellipse cx="322" cy="274" rx="18" ry="10" fill="#F3A064" opacity=".40"/></g>
  <g id="eyes-open"><ellipse cx="218" cy="210" rx="34" ry="43" fill="#FFFDF5" stroke="#293D36" stroke-width="8"/><ellipse cx="294" cy="210" rx="34" ry="43" fill="#FFFDF5" stroke="#293D36" stroke-width="8"/></g>
  <g id="eyes-center"><ellipse cx="222" cy="216" rx="12" ry="19" fill="#1E302B"/><ellipse cx="290" cy="216" rx="12" ry="19" fill="#1E302B"/><circle cx="218" cy="207" r="4" fill="#FFF"/><circle cx="286" cy="207" r="4" fill="#FFF"/></g>
  <g id="beak-closed"><path d="M219 267q37-25 74 0q-37 37-74 0Z" fill="#F28A2E" stroke="#293D36" stroke-width="8" stroke-linejoin="round"/><path d="M228 270h56" stroke="#CF6424" stroke-width="5" stroke-linecap="round"/></g>
  <g id="shell-chip"><path d="M186 116l29-23 24 17 26-25 25 23 27-20 25 27-20 38-43 10-49-8-35-19Z" fill="url(#shell)" stroke="#293D36" stroke-width="8" stroke-linejoin="round" transform="rotate(-8 256 122)"/><ellipse cx="218" cy="113" rx="18" ry="29" fill="#FFF" opacity=".28" transform="rotate(20 218 113)"/></g>
  <g id="wings-down"><path d="M163 318q-48 10-58 58q37 28 76-15Z" fill="#FFD447" stroke="#293D36" stroke-width="10" stroke-linejoin="round"/><path d="M349 318q48 10 58 58q-37 28-76-15Z" fill="#FFD447" stroke="#293D36" stroke-width="10" stroke-linejoin="round"/></g>
</defs>
<!-- frame 0: default -->
<g transform="translate(0 0)"><ellipse cx="256" cy="459" rx="115" ry="15" fill="#293D36" opacity=".10"/><use href="#torso"/><use href="#wings-down"/><use href="#head"/><use href="#shell-chip"/><use href="#eyes-open"/><use href="#eyes-center"/><use href="#beak-closed"/></g>
<!-- frame 1: blink -->
<g transform="translate(512 0)"><ellipse cx="256" cy="459" rx="115" ry="15" fill="#293D36" opacity=".10"/><use href="#torso"/><use href="#wings-down"/><use href="#head"/><use href="#shell-chip"/><path d="M185 213q33 27 66 0M261 213q33 27 66 0" fill="none" stroke="#293D36" stroke-width="10" stroke-linecap="round"/><use href="#beak-closed"/></g>
<!-- frame 2: look left -->
<g transform="translate(1024 0)"><ellipse cx="256" cy="459" rx="115" ry="15" fill="#293D36" opacity=".10"/><use href="#torso"/><path d="M159 315q-52 2-68 45q31 35 78 0Z" fill="#FFD447" stroke="#293D36" stroke-width="10" stroke-linejoin="round"/><path d="M350 322q45 12 53 55q-38 22-72-18Z" fill="#FFD447" stroke="#293D36" stroke-width="10" stroke-linejoin="round"/><g transform="rotate(-4 256 205)"><use href="#head"/><use href="#shell-chip"/><use href="#eyes-open"/><ellipse cx="210" cy="216" rx="12" ry="19" fill="#1E302B"/><ellipse cx="282" cy="216" rx="12" ry="19" fill="#1E302B"/><circle cx="206" cy="207" r="4" fill="#FFF"/><circle cx="278" cy="207" r="4" fill="#FFF"/><use href="#beak-closed"/></g></g>
<!-- frame 3: look right -->
<g transform="translate(1536 0)"><ellipse cx="256" cy="459" rx="115" ry="15" fill="#293D36" opacity=".10"/><use href="#torso"/><path d="M162 322q-45 12-53 55q38 22 72-18Z" fill="#FFD447" stroke="#293D36" stroke-width="10" stroke-linejoin="round"/><path d="M353 315q52 2 68 45q-31 35-78 0Z" fill="#FFD447" stroke="#293D36" stroke-width="10" stroke-linejoin="round"/><g transform="rotate(4 256 205)"><use href="#head"/><use href="#shell-chip"/><use href="#eyes-open"/><ellipse cx="230" cy="216" rx="12" ry="19" fill="#1E302B"/><ellipse cx="302" cy="216" rx="12" ry="19" fill="#1E302B"/><circle cx="226" cy="207" r="4" fill="#FFF"/><circle cx="298" cy="207" r="4" fill="#FFF"/><use href="#beak-closed"/></g></g>
<!-- frame 4: happy -->
<g transform="translate(2048 0)"><ellipse cx="256" cy="459" rx="115" ry="15" fill="#293D36" opacity=".10"/><use href="#torso"/><path d="M171 330q-58-18-75-72q47-19 88 31Z" fill="#FFD447" stroke="#293D36" stroke-width="10" stroke-linejoin="round"/><path d="M341 330q58-18 75-72q-47-19-88 31Z" fill="#FFD447" stroke="#293D36" stroke-width="10" stroke-linejoin="round"/><use href="#head"/><use href="#shell-chip"/><path d="M184 205q34-30 68 0M260 205q34-30 68 0" fill="none" stroke="#293D36" stroke-width="10" stroke-linecap="round"/><path d="M217 264q39-28 78 0q-39 54-78 0Z" fill="#F28A2E" stroke="#293D36" stroke-width="8" stroke-linejoin="round"/><path d="M232 284q24 18 48 0" fill="none" stroke="#CF6424" stroke-width="5" stroke-linecap="round"/></g>
<!-- frame 5: sad -->
<g transform="translate(2560 0)"><ellipse cx="256" cy="459" rx="115" ry="15" fill="#293D36" opacity=".10"/><g transform="translate(0 7)"><use href="#torso"/><path d="M165 324q-50 19-52 67q42 15 72-31Z" fill="#FFD447" stroke="#293D36" stroke-width="10" stroke-linejoin="round"/><path d="M347 324q50 19 52 67q-42 15-72-31Z" fill="#FFD447" stroke="#293D36" stroke-width="10" stroke-linejoin="round"/><g transform="translate(0 10)"><use href="#head"/><use href="#shell-chip"/><use href="#eyes-open"/><path d="M188 170q30-18 57 3M267 173q27-21 58-3" fill="none" stroke="#293D36" stroke-width="8" stroke-linecap="round"/><ellipse cx="222" cy="224" rx="12" ry="18" fill="#1E302B"/><ellipse cx="290" cy="224" rx="12" ry="18" fill="#1E302B"/><circle cx="218" cy="215" r="4" fill="#FFF"/><circle cx="286" cy="215" r="4" fill="#FFF"/><path d="M221 274q35-18 70 0q-35 25-70 0Z" fill="#F28A2E" stroke="#293D36" stroke-width="8" stroke-linejoin="round"/><path d="M326 239q10 18 0 30q-10-12 0-30Z" fill="#86CDE4" opacity=".85"/></g></g></g>
</svg>